<?xml version="1.0" encoding="UTF-8"?>
<svg id="Layer_1" data-name="Layer 1" xmlns="http://www.w3.org/2000/svg" viewBox="0 0 1952.41 1941.52">
  <defs>
    <style>
      .cls-1 {
        font-family: MyriadPro-Regular, 'Myriad Pro';
        font-size: 135px;
      }

      .cls-1, .cls-2 {
        fill: #231f20;
      }

      .cls-2 {
        stroke: #231f20;
        stroke-miterlimit: 10;
      }

      .cls-3 {
        letter-spacing: 0em;
      }

      .cls-4 {
        letter-spacing: 0em;
      }
    </style>
  </defs>
  <rect class="cls-2" x=".5" y=".5" width="20.69" height="243.1"/>
  <rect class="cls-2" x="111.71" y="-110.71" width="20.69" height="243.1" transform="translate(132.9 -111.21) rotate(90)"/>
  <rect class="cls-2" x="125.19" y="1809.12" width="20.69" height="243.1" transform="translate(-1795.14 2066.21) rotate(-90)"/>
  <rect class="cls-2" x="13.98" y="1697.91" width="20.69" height="243.1"/>
  <rect class="cls-2" x="1931.22" y=".5" width="20.69" height="243.1" transform="translate(3883.14 244.1) rotate(-180)"/>
  <rect class="cls-2" x="1820.02" y="-110.71" width="20.69" height="243.1" transform="translate(1841.21 -1819.52) rotate(90)"/>
  <rect class="cls-2" x="1809.12" y="1809.12" width="20.69" height="243.1" transform="translate(-111.21 3750.14) rotate(-90)"/>
  <rect class="cls-2" x="1920.33" y="1697.91" width="20.69" height="243.1" transform="translate(3861.34 3638.93) rotate(-180)"/>
  <rect class="cls-2" x="964.98" y="812.78" width="20.69" height="243.1" transform="translate(1909.66 -41) rotate(90)"/>
  <rect class="cls-2" x="964.98" y="812.78" width="20.69" height="243.1"/>
  <text class="cls-1" transform="translate(449.1 1174.31)"><tspan x="0" y="0">D</tspan><tspan class="cls-4" x="89.91" y="0">r</tspan><tspan x="132.7" y="0">op </tspan><tspan class="cls-3" x="312.25" y="0">y</tspan><tspan x="374.48" y="0">our file he</tspan><tspan class="cls-3" x="937.02" y="0">r</tspan><tspan x="979.82" y="0">e</tspan></text>
</svg>