<?xml version="1.0" encoding="utf-8"?>
<!-- Generator: Adobe Illustrator 27.3.1, SVG Export Plug-In . SVG Version: 6.00 Build 0)  -->
<svg version="1.1" id="Layer_1" xmlns="http://www.w3.org/2000/svg" xmlns:xlink="http://www.w3.org/1999/xlink" x="0px" y="0px"
	 viewBox="0 0 1952.4 1941.5" style="enable-background:new 0 0 1952.4 1941.5;" xml:space="preserve">
<style type="text/css">
	.st0{fill:#FFFFFF;stroke:#FFFFFF;stroke-miterlimit:10;}
	.st1{fill:#FFFFFF;}
	.st2{font-family:'ArialMT';}
	.st3{font-size:135px;}
</style>
<rect x="0.5" y="0.5" class="st0" width="20.7" height="243.1"/>
<rect x="0.5" y="0.5" class="st0" width="243.1" height="20.7"/>
<rect x="0.5" y="1920.3" class="st0" width="243.1" height="20.7"/>
<rect x="3.6" y="1697.9" class="st0" width="20.7" height="243.1"/>
<rect x="1931.2" y="0.5" class="st0" width="20.7" height="243.1"/>
<rect x="1708.8" y="0.5" class="st0" width="243.1" height="20.7"/>
<rect x="1708.8" y="1920.3" class="st0" width="243.1" height="20.7"/>
<rect x="1931.2" y="1697.9" class="st0" width="20.7" height="243.1"/>
<rect x="853.8" y="924" class="st0" width="243.1" height="20.7"/>
<rect x="965" y="812.8" class="st0" width="20.7" height="243.1"/>
<text transform="matrix(1 0 0 1 449.1 1174.3101)" class="st1 st2 st3">D</text>
<text transform="matrix(1 0 0 1 539.01 1174.3101)" class="st1 st2 st3">r</text>
<text transform="matrix(1 0 0 1 581.8 1174.3101)" class="st1 st2 st3">op </text>
<text transform="matrix(1 0 0 1 761.35 1174.3101)" class="st1 st2 st3">y</text>
<text transform="matrix(1 0 0 1 823.58 1174.3101)" class="st1 st2 st3">our file he</text>
<text transform="matrix(1 0 0 1 1386.12 1174.3101)" class="st1 st2 st3">r</text>
<text transform="matrix(1 0 0 1 1428.92 1174.3101)" class="st1 st2 st3">e</text>
</svg>
